<svg xmlns="http://www.w3.org/2000/svg" width="100%" height="100%">
    <defs>
        <mask id="blob-mask" x="0" y="0" width="100%" height="100%">
            <rect x="0" y="0" width="100%" height="100%" fill="white"/>
            <path d="M45,-65.1C55.1,-54.5,57.9,-37.1,65,-20C72.1,-2.9,83.5,14,80.3,26.7C77,39.5,59.2,48.1,43.3,57C27.5,65.9,13.8,75,-1.9,77.7C-17.6,80.3,-35.2,76.6,-50,67.3C-64.7,58.1,-76.6,43.4,-82.2,26.6C-87.8,9.8,-87.2,-9.2,-79.6,-23.7C-72,-38.3,-57.3,-48.5,-42.8,-57.6C-28.4,-66.8,-14.2,-75,1.6,-77.2C17.4,-79.4,34.9,-75.7,45,-65.1Z" fill="black" />
        </mask>
    </defs>
</svg>